<?xml version="1.0" encoding="UTF-8" standalone="no"?>
<svg width="1024px" height="387px" viewBox="0 0 1024 387" version="1.1" xmlns="http://www.w3.org/2000/svg" xmlns:xlink="http://www.w3.org/1999/xlink">
    <!-- Generator: Sketch 41.2 (35397) - http://www.bohemiancoding.com/sketch -->
    <title>robot (1) + robot (1) + robot (1) Mask</title>
    <desc>Created with Sketch.</desc>
    <defs>
        <rect id="path-1" x="0" y="0" width="1024" height="387"></rect>
    </defs>
    <g id="Page-1" stroke="none" stroke-width="1" fill="none" fill-rule="evenodd">
        <g id="Desktop-Copy-8" transform="translate(0.000000, -1856.000000)">
            <g id="subscribe" transform="translate(0.000000, 1856.000000)">
                <g id="Group-10">
                    <g>
                        <g id="robot-(1)-+-robot-(1)-+-robot-(1)-Mask">
                            <mask id="mask-2" fill="white">
                                <use xlink:href="#path-1"></use>
                            </mask>
                            <use id="Mask" fill="#F27678" xlink:href="#path-1"></use>
                            <g id="robot-(1)" opacity="0.149999991" mask="url(#mask-2)">
                                <g transform="translate(80.000000, 137.000000)" id="Layer_1">
                                    <g>
                                        <path d="M220.550463,144.805594 L200.575,144.805594 C197.614655,144.805594 195.216119,147.213063 195.216119,150.183 L195.216119,161.384328 L186.105254,161.384328 L186.105254,150.183 C186.105254,147.213063 183.706718,144.805594 180.746373,144.805594 L158.565814,144.805594 L158.565814,133.690109 L180.746373,133.690109 C183.706718,133.690109 186.105254,131.282641 186.105254,128.312703 L186.105254,42.3587656 C186.105254,29.3636875 175.570079,18.7920937 162.619768,18.7920937 L118.358881,18.7920937 L118.358881,5.37740625 C118.358881,2.40746875 115.960345,0 113,0 C110.039655,0 107.641119,2.40746875 107.641119,5.37740625 L107.641119,18.7914531 L63.3795932,18.7914531 C50.4292825,18.7914531 39.8941073,29.3636875 39.8941073,42.358125 L39.8941073,128.312703 C39.8941073,131.282641 42.2926441,133.690109 45.2529887,133.690109 L67.4341864,133.690109 L67.4341864,144.805594 L45.2529887,144.805594 C42.2926441,144.805594 39.8941073,147.213063 39.8941073,150.183 L39.8941073,161.384328 L30.7832429,161.384328 L30.7832429,150.183 C30.7832429,147.213063 28.3847062,144.805594 25.4243616,144.805594 L5.44825989,144.805594 C2.48791525,144.805594 0.0893785311,147.213063 0.0893785311,150.183 L0.0893785311,258.510125 C0.0893785311,261.480063 2.48791525,263.887531 5.44825989,263.887531 L25.4237232,263.887531 C28.3840678,263.887531 30.7826045,261.480063 30.7826045,258.510125 L30.7826045,194.247109 L39.8934689,194.247109 L39.8934689,237.939656 C39.8934689,240.909594 42.2920056,243.317063 45.2523503,243.317063 L54.7647797,243.317063 L54.7647797,291.820703 L48.0064859,291.820703 C45.0461412,291.820703 42.6476045,294.228172 42.6476045,297.198109 L42.6476045,322.621953 C42.6476045,325.591891 45.0461412,327.999359 48.0064859,327.999359 L93.1707345,327.999359 C96.1310791,327.999359 98.5296158,325.591891 98.5296158,322.621953 L98.5296158,297.198109 C98.5296158,294.228172 96.1310791,291.820703 93.1707345,291.820703 L86.4130791,291.820703 L86.4130791,243.317063 L139.586282,243.317063 L139.586282,291.820703 L132.827989,291.820703 C129.867644,291.820703 127.469107,294.228172 127.469107,297.198109 L127.469107,322.621953 C127.469107,325.591891 129.867644,327.999359 132.827989,327.999359 L177.992237,327.999359 C180.952582,327.999359 183.351119,325.591891 183.351119,322.621953 L183.351119,297.198109 C183.351119,294.228172 180.952582,291.820703 177.992237,291.820703 L171.234582,291.820703 L171.234582,243.317063 L180.747011,243.317063 C183.707356,243.317063 186.105893,240.909594 186.105893,237.939656 L186.105893,194.247109 L195.216757,194.247109 L195.216757,258.509484 C195.216757,261.479422 197.615294,263.886891 200.575638,263.886891 L220.551102,263.886891 C223.511446,263.886891 225.909983,261.479422 225.909983,258.509484 L225.909983,150.182359 C225.908706,147.213063 223.510169,144.805594 220.550463,144.805594 L220.550463,144.805594 Z M20.0654802,253.132719 L10.8077797,253.132719 L10.8077797,155.560406 L20.0654802,155.560406 L20.0654802,253.132719 L20.0654802,253.132719 Z M39.8941073,183.492937 L30.7832429,183.492937 L30.7832429,172.139141 L39.8941073,172.139141 L39.8941073,183.492937 L39.8941073,183.492937 Z M50.6112316,122.935937 L50.6112316,42.3587656 C50.6112316,35.2939531 56.3391186,29.5462656 63.3795932,29.5462656 L162.619768,29.5462656 C169.660243,29.5462656 175.38813,35.2939531 175.38813,42.3587656 L175.38813,122.935937 L50.6112316,122.935937 L50.6112316,122.935937 Z M147.848689,133.689469 L147.848689,144.804953 L78.1513107,144.804953 L78.1513107,133.689469 L147.848689,133.689469 L147.848689,133.689469 Z M87.8124915,302.576156 L87.8124915,317.245188 L53.3653672,317.245188 L53.3653672,302.576156 L87.8124915,302.576156 L87.8124915,302.576156 Z M65.4831808,291.821344 L65.4831808,243.317703 L75.6965932,243.317703 L75.6965932,291.821344 L65.4831808,291.821344 L65.4831808,291.821344 Z M172.633994,302.576156 L172.633994,317.245188 L138.18687,317.245188 L138.18687,302.576156 L172.633994,302.576156 L172.633994,302.576156 Z M150.304684,291.821344 L150.304684,243.317703 L160.518096,243.317703 L160.518096,291.821344 L160.518096,291.821344 L150.304684,291.821344 L150.304684,291.821344 Z M175.38813,232.56225 L50.6112316,232.56225 L50.6112316,155.560406 L175.387492,155.560406 L175.387492,232.56225 L175.38813,232.56225 Z M195.216119,183.492937 L186.105254,183.492937 L186.105254,172.139141 L195.216119,172.139141 L195.216119,183.492937 L195.216119,183.492937 Z M215.191582,253.132719 L205.933881,253.132719 L205.933881,155.560406 L215.191582,155.560406 L215.191582,253.132719 L215.191582,253.132719 Z" id="Shape" fill="#FFFFFF"></path>
                                        <path d="M79.9529266,54.289125 C66.6719153,54.289125 55.8673277,65.1310625 55.8673277,78.4573438 C55.8673277,91.783625 66.6719153,102.625563 79.9529266,102.625563 C93.2332994,102.626203 104.037887,91.7842656 104.037887,78.4573438 C104.038525,65.1310625 93.2339379,54.289125 79.9529266,54.289125 L79.9529266,54.289125 Z M79.9529266,91.8713906 C72.5823898,91.8713906 66.584452,85.8546406 66.584452,78.4573438 C66.584452,71.0613281 72.5817514,65.0432969 79.9529266,65.0432969 C87.3234633,65.0432969 93.3207627,71.0606875 93.3207627,78.4573438 C93.3207627,85.854 87.3241017,91.8713906 79.9529266,91.8713906 L79.9529266,91.8713906 Z" id="Shape" fill="#FFFFFF"></path>
                                        <path d="M146.047712,54.289125 C132.766701,54.289125 121.962113,65.1310625 121.962113,78.4573438 C121.962113,91.783625 132.766701,102.626203 146.047712,102.626203 C159.328085,102.626203 170.132672,91.7842656 170.132672,78.4579844 C170.132672,65.1317031 159.328085,54.289125 146.047712,54.289125 L146.047712,54.289125 Z M146.047712,91.8713906 C138.677175,91.8713906 132.679237,85.854 132.679237,78.4573438 C132.679237,71.0613281 138.675898,65.0432969 146.047712,65.0432969 C153.418249,65.0432969 159.415548,71.0606875 159.415548,78.4573438 C159.41491,85.854 153.418249,91.8713906 146.047712,91.8713906 L146.047712,91.8713906 Z" id="Shape" fill="#FFFFFF"></path>
                                        <path d="M113.000638,173.545312 C93.6457175,173.545312 77.8991356,189.345687 77.8991356,208.768156 C77.8991356,211.738094 80.2976723,214.145562 83.2580169,214.145562 L142.74326,214.145562 C145.703605,214.145562 148.102141,211.738094 148.102141,208.768156 C148.101503,189.346328 132.355559,173.545312 113.000638,173.545312 L113.000638,173.545312 Z M89.2093503,203.39075 C91.6576836,192.477062 101.396113,184.300125 113,184.300125 C124.604525,184.300125 134.342316,192.477062 136.79065,203.39075 L89.2093503,203.39075 L89.2093503,203.39075 Z" id="Shape" fill="#FFFFFF"></path>
                                        <ellipse id="Oval" fill="#FFFFFF" cx="158.164249" cy="171.184609" rx="5.35888136" ry="5.37740625"></ellipse>
                                        <ellipse id="Oval" fill="#FFFFFF" cx="67.8363898" cy="171.184609" rx="5.35888136" ry="5.37740625"></ellipse>
                                    </g>
                                </g>
                            </g>
                            <g id="robot-(1)" opacity="0.149999991" mask="url(#mask-2)">
                                <g transform="translate(400.000000, 137.000000)" id="Layer_1">
                                    <g>
                                        <path d="M220.550463,144.805594 L200.575,144.805594 C197.614655,144.805594 195.216119,147.213063 195.216119,150.183 L195.216119,161.384328 L186.105254,161.384328 L186.105254,150.183 C186.105254,147.213063 183.706718,144.805594 180.746373,144.805594 L158.565814,144.805594 L158.565814,133.690109 L180.746373,133.690109 C183.706718,133.690109 186.105254,131.282641 186.105254,128.312703 L186.105254,42.3587656 C186.105254,29.3636875 175.570079,18.7920937 162.619768,18.7920937 L118.358881,18.7920937 L118.358881,5.37740625 C118.358881,2.40746875 115.960345,0 113,0 C110.039655,0 107.641119,2.40746875 107.641119,5.37740625 L107.641119,18.7914531 L63.3795932,18.7914531 C50.4292825,18.7914531 39.8941073,29.3636875 39.8941073,42.358125 L39.8941073,128.312703 C39.8941073,131.282641 42.2926441,133.690109 45.2529887,133.690109 L67.4341864,133.690109 L67.4341864,144.805594 L45.2529887,144.805594 C42.2926441,144.805594 39.8941073,147.213063 39.8941073,150.183 L39.8941073,161.384328 L30.7832429,161.384328 L30.7832429,150.183 C30.7832429,147.213063 28.3847062,144.805594 25.4243616,144.805594 L5.44825989,144.805594 C2.48791525,144.805594 0.0893785311,147.213063 0.0893785311,150.183 L0.0893785311,258.510125 C0.0893785311,261.480063 2.48791525,263.887531 5.44825989,263.887531 L25.4237232,263.887531 C28.3840678,263.887531 30.7826045,261.480063 30.7826045,258.510125 L30.7826045,194.247109 L39.8934689,194.247109 L39.8934689,237.939656 C39.8934689,240.909594 42.2920056,243.317063 45.2523503,243.317063 L54.7647797,243.317063 L54.7647797,291.820703 L48.0064859,291.820703 C45.0461412,291.820703 42.6476045,294.228172 42.6476045,297.198109 L42.6476045,322.621953 C42.6476045,325.591891 45.0461412,327.999359 48.0064859,327.999359 L93.1707345,327.999359 C96.1310791,327.999359 98.5296158,325.591891 98.5296158,322.621953 L98.5296158,297.198109 C98.5296158,294.228172 96.1310791,291.820703 93.1707345,291.820703 L86.4130791,291.820703 L86.4130791,243.317063 L139.586282,243.317063 L139.586282,291.820703 L132.827989,291.820703 C129.867644,291.820703 127.469107,294.228172 127.469107,297.198109 L127.469107,322.621953 C127.469107,325.591891 129.867644,327.999359 132.827989,327.999359 L177.992237,327.999359 C180.952582,327.999359 183.351119,325.591891 183.351119,322.621953 L183.351119,297.198109 C183.351119,294.228172 180.952582,291.820703 177.992237,291.820703 L171.234582,291.820703 L171.234582,243.317063 L180.747011,243.317063 C183.707356,243.317063 186.105893,240.909594 186.105893,237.939656 L186.105893,194.247109 L195.216757,194.247109 L195.216757,258.509484 C195.216757,261.479422 197.615294,263.886891 200.575638,263.886891 L220.551102,263.886891 C223.511446,263.886891 225.909983,261.479422 225.909983,258.509484 L225.909983,150.182359 C225.908706,147.213063 223.510169,144.805594 220.550463,144.805594 L220.550463,144.805594 Z M20.0654802,253.132719 L10.8077797,253.132719 L10.8077797,155.560406 L20.0654802,155.560406 L20.0654802,253.132719 L20.0654802,253.132719 Z M39.8941073,183.492937 L30.7832429,183.492937 L30.7832429,172.139141 L39.8941073,172.139141 L39.8941073,183.492937 L39.8941073,183.492937 Z M50.6112316,122.935937 L50.6112316,42.3587656 C50.6112316,35.2939531 56.3391186,29.5462656 63.3795932,29.5462656 L162.619768,29.5462656 C169.660243,29.5462656 175.38813,35.2939531 175.38813,42.3587656 L175.38813,122.935937 L50.6112316,122.935937 L50.6112316,122.935937 Z M147.848689,133.689469 L147.848689,144.804953 L78.1513107,144.804953 L78.1513107,133.689469 L147.848689,133.689469 L147.848689,133.689469 Z M87.8124915,302.576156 L87.8124915,317.245188 L53.3653672,317.245188 L53.3653672,302.576156 L87.8124915,302.576156 L87.8124915,302.576156 Z M65.4831808,291.821344 L65.4831808,243.317703 L75.6965932,243.317703 L75.6965932,291.821344 L65.4831808,291.821344 L65.4831808,291.821344 Z M172.633994,302.576156 L172.633994,317.245188 L138.18687,317.245188 L138.18687,302.576156 L172.633994,302.576156 L172.633994,302.576156 Z M150.304684,291.821344 L150.304684,243.317703 L160.518096,243.317703 L160.518096,291.821344 L160.518096,291.821344 L150.304684,291.821344 L150.304684,291.821344 Z M175.38813,232.56225 L50.6112316,232.56225 L50.6112316,155.560406 L175.387492,155.560406 L175.387492,232.56225 L175.38813,232.56225 Z M195.216119,183.492937 L186.105254,183.492937 L186.105254,172.139141 L195.216119,172.139141 L195.216119,183.492937 L195.216119,183.492937 Z M215.191582,253.132719 L205.933881,253.132719 L205.933881,155.560406 L215.191582,155.560406 L215.191582,253.132719 L215.191582,253.132719 Z" id="Shape" fill="#B45658"></path>
                                        <path d="M79.9529266,54.289125 C66.6719153,54.289125 55.8673277,65.1310625 55.8673277,78.4573438 C55.8673277,91.783625 66.6719153,102.625563 79.9529266,102.625563 C93.2332994,102.626203 104.037887,91.7842656 104.037887,78.4573438 C104.038525,65.1310625 93.2339379,54.289125 79.9529266,54.289125 L79.9529266,54.289125 Z M79.9529266,91.8713906 C72.5823898,91.8713906 66.584452,85.8546406 66.584452,78.4573438 C66.584452,71.0613281 72.5817514,65.0432969 79.9529266,65.0432969 C87.3234633,65.0432969 93.3207627,71.0606875 93.3207627,78.4573438 C93.3207627,85.854 87.3241017,91.8713906 79.9529266,91.8713906 L79.9529266,91.8713906 Z" id="Shape" fill="#B45658"></path>
                                        <path d="M146.047712,54.289125 C132.766701,54.289125 121.962113,65.1310625 121.962113,78.4573438 C121.962113,91.783625 132.766701,102.626203 146.047712,102.626203 C159.328085,102.626203 170.132672,91.7842656 170.132672,78.4579844 C170.132672,65.1317031 159.328085,54.289125 146.047712,54.289125 L146.047712,54.289125 Z M146.047712,91.8713906 C138.677175,91.8713906 132.679237,85.854 132.679237,78.4573438 C132.679237,71.0613281 138.675898,65.0432969 146.047712,65.0432969 C153.418249,65.0432969 159.415548,71.0606875 159.415548,78.4573438 C159.41491,85.854 153.418249,91.8713906 146.047712,91.8713906 L146.047712,91.8713906 Z" id="Shape" fill="#B45658"></path>
                                        <path d="M113.000638,173.545312 C93.6457175,173.545312 77.8991356,189.345687 77.8991356,208.768156 C77.8991356,211.738094 80.2976723,214.145562 83.2580169,214.145562 L142.74326,214.145562 C145.703605,214.145562 148.102141,211.738094 148.102141,208.768156 C148.101503,189.346328 132.355559,173.545312 113.000638,173.545312 L113.000638,173.545312 Z M89.2093503,203.39075 C91.6576836,192.477062 101.396113,184.300125 113,184.300125 C124.604525,184.300125 134.342316,192.477062 136.79065,203.39075 L89.2093503,203.39075 L89.2093503,203.39075 Z" id="Shape" fill="#B45658"></path>
                                        <ellipse id="Oval" fill="#B45658" cx="158.164249" cy="171.184609" rx="5.35888136" ry="5.37740625"></ellipse>
                                        <ellipse id="Oval" fill="#B45658" cx="67.8363898" cy="171.184609" rx="5.35888136" ry="5.37740625"></ellipse>
                                    </g>
                                </g>
                            </g>
                            <g id="robot-(1)" opacity="0.149999991" mask="url(#mask-2)">
                                <g transform="translate(730.000000, 137.000000)" id="Layer_1">
                                    <g>
                                        <path d="M220.550463,144.805594 L200.575,144.805594 C197.614655,144.805594 195.216119,147.213063 195.216119,150.183 L195.216119,161.384328 L186.105254,161.384328 L186.105254,150.183 C186.105254,147.213063 183.706718,144.805594 180.746373,144.805594 L158.565814,144.805594 L158.565814,133.690109 L180.746373,133.690109 C183.706718,133.690109 186.105254,131.282641 186.105254,128.312703 L186.105254,42.3587656 C186.105254,29.3636875 175.570079,18.7920937 162.619768,18.7920937 L118.358881,18.7920937 L118.358881,5.37740625 C118.358881,2.40746875 115.960345,0 113,0 C110.039655,0 107.641119,2.40746875 107.641119,5.37740625 L107.641119,18.7914531 L63.3795932,18.7914531 C50.4292825,18.7914531 39.8941073,29.3636875 39.8941073,42.358125 L39.8941073,128.312703 C39.8941073,131.282641 42.2926441,133.690109 45.2529887,133.690109 L67.4341864,133.690109 L67.4341864,144.805594 L45.2529887,144.805594 C42.2926441,144.805594 39.8941073,147.213063 39.8941073,150.183 L39.8941073,161.384328 L30.7832429,161.384328 L30.7832429,150.183 C30.7832429,147.213063 28.3847062,144.805594 25.4243616,144.805594 L5.44825989,144.805594 C2.48791525,144.805594 0.0893785311,147.213063 0.0893785311,150.183 L0.0893785311,258.510125 C0.0893785311,261.480063 2.48791525,263.887531 5.44825989,263.887531 L25.4237232,263.887531 C28.3840678,263.887531 30.7826045,261.480063 30.7826045,258.510125 L30.7826045,194.247109 L39.8934689,194.247109 L39.8934689,237.939656 C39.8934689,240.909594 42.2920056,243.317063 45.2523503,243.317063 L54.7647797,243.317063 L54.7647797,291.820703 L48.0064859,291.820703 C45.0461412,291.820703 42.6476045,294.228172 42.6476045,297.198109 L42.6476045,322.621953 C42.6476045,325.591891 45.0461412,327.999359 48.0064859,327.999359 L93.1707345,327.999359 C96.1310791,327.999359 98.5296158,325.591891 98.5296158,322.621953 L98.5296158,297.198109 C98.5296158,294.228172 96.1310791,291.820703 93.1707345,291.820703 L86.4130791,291.820703 L86.4130791,243.317063 L139.586282,243.317063 L139.586282,291.820703 L132.827989,291.820703 C129.867644,291.820703 127.469107,294.228172 127.469107,297.198109 L127.469107,322.621953 C127.469107,325.591891 129.867644,327.999359 132.827989,327.999359 L177.992237,327.999359 C180.952582,327.999359 183.351119,325.591891 183.351119,322.621953 L183.351119,297.198109 C183.351119,294.228172 180.952582,291.820703 177.992237,291.820703 L171.234582,291.820703 L171.234582,243.317063 L180.747011,243.317063 C183.707356,243.317063 186.105893,240.909594 186.105893,237.939656 L186.105893,194.247109 L195.216757,194.247109 L195.216757,258.509484 C195.216757,261.479422 197.615294,263.886891 200.575638,263.886891 L220.551102,263.886891 C223.511446,263.886891 225.909983,261.479422 225.909983,258.509484 L225.909983,150.182359 C225.908706,147.213063 223.510169,144.805594 220.550463,144.805594 L220.550463,144.805594 Z M20.0654802,253.132719 L10.8077797,253.132719 L10.8077797,155.560406 L20.0654802,155.560406 L20.0654802,253.132719 L20.0654802,253.132719 Z M39.8941073,183.492937 L30.7832429,183.492937 L30.7832429,172.139141 L39.8941073,172.139141 L39.8941073,183.492937 L39.8941073,183.492937 Z M50.6112316,122.935937 L50.6112316,42.3587656 C50.6112316,35.2939531 56.3391186,29.5462656 63.3795932,29.5462656 L162.619768,29.5462656 C169.660243,29.5462656 175.38813,35.2939531 175.38813,42.3587656 L175.38813,122.935937 L50.6112316,122.935937 L50.6112316,122.935937 Z M147.848689,133.689469 L147.848689,144.804953 L78.1513107,144.804953 L78.1513107,133.689469 L147.848689,133.689469 L147.848689,133.689469 Z M87.8124915,302.576156 L87.8124915,317.245188 L53.3653672,317.245188 L53.3653672,302.576156 L87.8124915,302.576156 L87.8124915,302.576156 Z M65.4831808,291.821344 L65.4831808,243.317703 L75.6965932,243.317703 L75.6965932,291.821344 L65.4831808,291.821344 L65.4831808,291.821344 Z M172.633994,302.576156 L172.633994,317.245188 L138.18687,317.245188 L138.18687,302.576156 L172.633994,302.576156 L172.633994,302.576156 Z M150.304684,291.821344 L150.304684,243.317703 L160.518096,243.317703 L160.518096,291.821344 L160.518096,291.821344 L150.304684,291.821344 L150.304684,291.821344 Z M175.38813,232.56225 L50.6112316,232.56225 L50.6112316,155.560406 L175.387492,155.560406 L175.387492,232.56225 L175.38813,232.56225 Z M195.216119,183.492937 L186.105254,183.492937 L186.105254,172.139141 L195.216119,172.139141 L195.216119,183.492937 L195.216119,183.492937 Z M215.191582,253.132719 L205.933881,253.132719 L205.933881,155.560406 L215.191582,155.560406 L215.191582,253.132719 L215.191582,253.132719 Z" id="Shape" fill="#FFFFFF"></path>
                                        <path d="M79.9529266,54.289125 C66.6719153,54.289125 55.8673277,65.1310625 55.8673277,78.4573438 C55.8673277,91.783625 66.6719153,102.625563 79.9529266,102.625563 C93.2332994,102.626203 104.037887,91.7842656 104.037887,78.4573438 C104.038525,65.1310625 93.2339379,54.289125 79.9529266,54.289125 L79.9529266,54.289125 Z M79.9529266,91.8713906 C72.5823898,91.8713906 66.584452,85.8546406 66.584452,78.4573438 C66.584452,71.0613281 72.5817514,65.0432969 79.9529266,65.0432969 C87.3234633,65.0432969 93.3207627,71.0606875 93.3207627,78.4573438 C93.3207627,85.854 87.3241017,91.8713906 79.9529266,91.8713906 L79.9529266,91.8713906 Z" id="Shape" fill="#FFFFFF"></path>
                                        <path d="M146.047712,54.289125 C132.766701,54.289125 121.962113,65.1310625 121.962113,78.4573438 C121.962113,91.783625 132.766701,102.626203 146.047712,102.626203 C159.328085,102.626203 170.132672,91.7842656 170.132672,78.4579844 C170.132672,65.1317031 159.328085,54.289125 146.047712,54.289125 L146.047712,54.289125 Z M146.047712,91.8713906 C138.677175,91.8713906 132.679237,85.854 132.679237,78.4573438 C132.679237,71.0613281 138.675898,65.0432969 146.047712,65.0432969 C153.418249,65.0432969 159.415548,71.0606875 159.415548,78.4573438 C159.41491,85.854 153.418249,91.8713906 146.047712,91.8713906 L146.047712,91.8713906 Z" id="Shape" fill="#FFFFFF"></path>
                                        <path d="M113.000638,173.545312 C93.6457175,173.545312 77.8991356,189.345687 77.8991356,208.768156 C77.8991356,211.738094 80.2976723,214.145562 83.2580169,214.145562 L142.74326,214.145562 C145.703605,214.145562 148.102141,211.738094 148.102141,208.768156 C148.101503,189.346328 132.355559,173.545312 113.000638,173.545312 L113.000638,173.545312 Z M89.2093503,203.39075 C91.6576836,192.477062 101.396113,184.300125 113,184.300125 C124.604525,184.300125 134.342316,192.477062 136.79065,203.39075 L89.2093503,203.39075 L89.2093503,203.39075 Z" id="Shape" fill="#FFFFFF"></path>
                                        <ellipse id="Oval" fill="#FFFFFF" cx="158.164249" cy="171.184609" rx="5.35888136" ry="5.37740625"></ellipse>
                                        <ellipse id="Oval" fill="#FFFFFF" cx="67.8363898" cy="171.184609" rx="5.35888136" ry="5.37740625"></ellipse>
                                    </g>
                                </g>
                            </g>
                        </g>
                    </g>
                </g>
            </g>
        </g>
    </g>
</svg>