<?xml version="1.0" encoding="UTF-8" standalone="no"?>
<svg width="1024px" height="343px" viewBox="0 0 1024 343" version="1.1" xmlns="http://www.w3.org/2000/svg" xmlns:xlink="http://www.w3.org/1999/xlink">
    <!-- Generator: Sketch 41.2 (35397) - http://www.bohemiancoding.com/sketch -->
    <title>dna + bacteria (2) Mask</title>
    <desc>Created with Sketch.</desc>
    <defs>
        <rect id="path-1" x="0" y="0" width="1024" height="343"></rect>
    </defs>
    <g id="Page-1" stroke="none" stroke-width="1" fill="none" fill-rule="evenodd">
        <g id="Desktop-Copy-8" transform="translate(0.000000, -3801.000000)">
            <g id="Group-29" transform="translate(0.000000, 3801.000000)">
                <g id="Group-38">
                    <g id="dna-+-bacteria-(2)-Mask">
                        <mask id="mask-2" fill="white">
                            <use xlink:href="#path-1"></use>
                        </mask>
                        <g id="Mask"></g>
                        <g id="dna" mask="url(#mask-2)">
                            <g transform="translate(-176.000000, -345.000000)">
                                <rect id="Mask" fill="#54BEAD" x="176" y="345" width="1024" height="343"></rect>
                                <g id="dna" opacity="0.100000001" stroke-width="1" fill="none" transform="translate(375.227276, 375.227276) rotate(17.000000) translate(-375.227276, -375.227276) translate(74.727276, 74.727276)">
                                    <g id="Layer_1" transform="translate(-0.000000, 0.000000)" fill="#FFFFFF">
                                        <g id="Group" transform="translate(-0.000000, -0.000000)">
                                            <g transform="translate(-0.000000, -0.000000)" id="Shape">
                                                <path d="M597.817459,162.249607 C593.723222,158.155369 587.581265,158.155369 583.485828,162.249607 C580.647573,165.087862 577.827311,167.717387 575.015447,170.157375 L430.149255,25.2911836 C432.319333,22.843998 434.628565,20.3872156 437.103341,17.9136387 C441.197579,13.8194012 441.197579,7.67744511 437.103341,3.58200798 C433.009104,-0.512229541 426.867148,-0.512229541 422.771711,3.58200798 C396.315715,30.5370379 385.442533,56.2780719 383.37802,85.4283713 C382.797413,87.1366028 382.702645,88.9408024 383.098513,90.6802236 C382.20481,116.160944 387.551431,144.377954 394.815014,178.295467 C366.360483,173.115591 339.581794,171.52492 315.268285,173.326721 C312.484012,171.997563 309.495806,172.259076 306.793106,174.10886 C273.926443,177.706463 245.973345,187.767515 225.034313,203.77019 C223.623583,204.271623 222.282429,205.095749 221.111619,206.266559 C220.491425,206.886752 219.976796,207.558529 219.543741,208.259096 C217.615982,209.933739 215.732609,211.645569 213.945204,213.432974 C193.300074,234.078104 184.173511,259.393279 182.843154,290.903194 C182.07421,292.95811 182.01423,295.170174 182.678808,297.247882 C182.444886,321.50381 186.455152,349.29976 193.189711,381.315906 C106.247443,364.288772 48.6714032,377.682315 3.07097804,423.282741 C-1.02325948,427.376978 -1.02325948,433.518934 3.07097804,437.614371 C5.11869661,439.66209 7.16521557,440.685349 10.2361936,440.685349 C13.3071717,440.685349 15.3548902,439.66209 16.3781497,438.637631 C21.6731876,433.342593 27.1061796,428.563383 32.715513,424.265214 L176.200964,567.749465 C172.139116,572.991721 167.675401,578.060034 162.761836,582.973599 C158.667599,587.067836 158.667599,593.209792 162.761836,597.30523 C164.809555,599.352948 166.856074,600.376208 169.927052,600.376208 C171.97477,600.376208 175.045749,599.352948 178.116727,596.28197 C223.268501,551.130196 236.862377,494.255922 220.59699,408.74118 C296.727255,424.51593 348.839114,424.536323 385.919974,387.455463 C423.639022,350.703293 435.75619,283.789561 420.577641,203.994515 C497.782749,220.578996 546.425361,227.974535 597.817459,176.581238 C601.911697,172.487 601.911697,166.345044 597.817459,162.249607 L597.817459,162.249607 Z M558.522136,182.327325 C544.862281,190.660952 530.937315,194.906339 515.59802,196.228299 C515.138573,195.435363 514.571162,194.678415 513.876593,193.982647 L403.229014,84.3319361 C404.702124,69.0622176 409.152643,55.226022 417.777772,41.5829621 L558.522136,182.327325 L558.522136,182.327325 Z M484.891838,195.575717 C465.185996,193.482413 442.789449,188.642024 416.079138,182.713597 C410.149511,155.645804 405.387096,133.161687 403.515719,113.466641 L484.891838,195.575717 L484.891838,195.575717 Z M399.355503,199.444429 C404.026749,222.113285 406.399559,243.716896 406.54591,263.745431 L335.618313,192.817834 C355.55088,192.779447 376.982948,194.947126 399.355503,199.444429 L399.355503,199.444429 Z M385.083852,355.909561 L244.257916,215.083625 C261.718106,203.977721 284.2718,196.903675 310.323531,194.138595 L402.296924,286.111988 C403.33098,287.146044 404.367435,287.917387 405.533447,288.429617 C403.073066,315.066752 396.152569,338.037908 385.083852,355.909561 L385.083852,355.909561 Z M204.405978,320.590914 L280.51585,396.701986 C261.366623,395.033341 239.855381,391.264196 215.764998,386.11311 C210.203649,361.737222 206.206579,339.968066 204.405978,320.590914 L204.405978,320.590914 Z M198.061289,403.881597 C202.872888,427.411766 205.502413,448.444367 205.915076,467.45924 L133.796275,395.340439 C152.961098,395.982226 174.212026,398.873263 198.061289,403.881597 L198.061289,403.881597 Z M50.0209541,412.907393 C66.6114331,403.718451 84.9269381,398.202687 105.931948,396.138174 L204.817441,495.023667 C202.521405,515.926711 196.820902,534.13905 187.637958,550.524397 L50.0209541,412.907393 L50.0209541,412.907393 Z M309.898872,397.421747 L203.524271,291.047146 C204.741866,264.688317 212.172194,243.869246 228.276834,227.764605 L372.586411,372.074182 C372.251723,372.420866 371.92903,372.784345 371.589543,373.123832 C355.809994,388.902182 335.503152,396.112982 309.898872,397.421747 L309.898872,397.421747 Z"></path>
                                            </g>
                                        </g>
                                    </g>
                                </g>
                            </g>
                        </g>
                        <g id="bacteria-(2)" mask="url(#mask-2)" opacity="0.100000001">
                            <g transform="translate(597.000000, 28.000000)">
                                <g>
                                    <g id="Layer_1" fill="#2C5A56">
                                        <g id="Group">
                                            <path d="M429.56,290.888 L475.144,271.352 L468.848,256.648 L421.496,276.944 C413.816,265.864 404.04,256.352 392.744,248.968 L414.848,212.12 L401.128,203.888 L378.688,241.28 C365.656,235.368 351.232,232 336,232 L333.592,232 L366.992,171.88 L353.008,164.112 L315.864,230.976 C299.48,228.464 284.736,221 273.192,210.112 L293.656,189.648 L282.344,178.336 L262.672,198.008 C253.464,184.984 248,169.128 248,152 C248,151.592 247.944,151.192 247.936,150.784 L289.312,143.888 L286.688,128.104 L246.376,134.824 C244.56,124.816 241.248,115.328 236.584,106.648 L291.584,79.152 L284.424,64.84 L227.72,93.192 C223.192,87.368 218.048,82.056 212.32,77.408 L238.256,44.992 L225.752,34.992 L199.032,68.392 C192.192,64.528 184.816,61.528 177.072,59.432 L183.848,25.568 L168.16,22.432 L161.352,56.472 C158.272,56.176 155.152,56 152,56 C143.696,56 135.688,57.168 128,59.16 L128,0 L112,0 L112,64.84 C107.664,66.84 103.48,69.112 99.512,71.712 L62.152,26.872 L49.848,37.128 L86.928,81.624 C82.248,85.952 78.008,90.72 74.264,95.896 L52.44,81.344 L43.568,94.656 L66,109.608 C61.928,117.824 59.016,126.672 57.448,136 L0,136 L0,152 L56,152 L56,160 C56,165.824 56.24,171.592 56.592,177.328 L22.432,184.16 L25.576,199.848 L58.064,193.352 C59.384,204.44 61.352,215.336 63.936,225.992 L13.816,240.312 L18.208,255.704 L68.128,241.44 C70.2,248.248 72.568,254.92 75.136,261.504 L20.44,288.856 L27.6,303.168 L81.4,276.272 C85.272,284.728 89.552,292.952 94.224,300.936 L51.584,329.36 L60.456,342.672 L102.664,314.528 C108.328,323.056 114.432,331.256 120.968,339.096 L99.576,353.36 L108.448,366.672 L131.688,351.176 C137.296,357.168 143.144,362.936 149.256,368.416 L113.864,410.888 L126.16,421.136 L161.496,378.736 C168,383.936 174.712,388.864 181.664,393.472 L145.224,451.768 L158.784,460.256 L195.248,401.912 C204.344,407.224 213.76,412.048 223.464,416.328 L208.408,461.488 L223.576,466.552 L238.296,422.4 C248.656,426.272 259.32,429.504 270.208,432.144 L264.144,462.456 L279.832,465.6 L285.864,435.448 C294.448,437.008 303.16,438.176 311.992,438.936 L311.992,496 L327.992,496 L327.992,439.8 C330.664,439.872 333.32,440 336,440 C346.056,440 355.752,438.488 364.96,435.816 L384.84,475.584 L399.152,468.424 L379.992,430.104 C386.496,427.048 392.616,423.352 398.304,419.072 L417.6,444.8 L430.4,435.208 L410.392,408.536 C415.056,403.752 419.256,398.528 422.944,392.92 L467.568,422.664 L476.44,409.352 L430.664,378.832 C434.488,370.424 437.176,361.424 438.64,352.008 L496,352.008 L496,336.008 L440,336.008 C440,319.824 436.176,304.56 429.56,290.888 L429.56,290.888 Z M336,424 C190.432,424 72,305.568 72,160 L72,152 C72,107.888 107.888,72 152,72 C196.112,72 232,107.888 232,152 C232,204.936 275.064,248 328,248 L336,248 C384.52,248 424,287.48 424,336 C424,384.52 384.52,424 336,424 L336,424 Z" id="Shape"></path>
                                            <path d="M160,192 C186.472,192 208,170.472 208,144 C208,117.528 186.472,96 160,96 C133.528,96 112,117.528 112,144 C112,170.472 133.528,192 160,192 L160,192 Z M160,112 C177.648,112 192,126.352 192,144 C192,161.648 177.648,176 160,176 C142.352,176 128,161.648 128,144 C128,126.352 142.352,112 160,112 L160,112 Z" id="Shape"></path>
                                            <path d="M144,232 C130.768,232 120,242.768 120,256 C120,269.232 130.768,280 144,280 C157.232,280 168,269.232 168,256 C168,242.768 157.232,232 144,232 L144,232 Z M144,264 C139.584,264 136,260.416 136,256 C136,251.584 139.584,248 144,248 C148.416,248 152,251.584 152,256 C152,260.416 148.416,264 144,264 L144,264 Z" id="Shape"></path>
                                            <path d="M224,312 C206.352,312 192,326.352 192,344 C192,361.648 206.352,376 224,376 C241.648,376 256,361.648 256,344 C256,326.352 241.648,312 224,312 L224,312 Z M224,360 C215.176,360 208,352.824 208,344 C208,335.176 215.176,328 224,328 C232.824,328 240,335.176 240,344 C240,352.824 232.824,360 224,360 L224,360 Z" id="Shape"></path>
                                            <path d="M272,248 C258.768,248 248,258.768 248,272 C248,285.232 258.768,296 272,296 C285.232,296 296,285.232 296,272 C296,258.768 285.232,248 272,248 L272,248 Z M272,280 C267.584,280 264,276.416 264,272 C264,267.584 267.584,264 272,264 C276.416,264 280,267.584 280,272 C280,276.416 276.416,280 272,280 L272,280 Z" id="Shape"></path>
                                            <path d="M352,304 C334.352,304 320,318.352 320,336 C320,353.648 334.352,368 352,368 C369.648,368 384,353.648 384,336 C384,318.352 369.648,304 352,304 L352,304 Z M352,352 C343.176,352 336,344.824 336,336 C336,327.176 343.176,320 352,320 C360.824,320 368,327.176 368,336 C368,344.824 360.824,352 352,352 L352,352 Z" id="Shape"></path>
                                            <path d="M480,96 L480,94.104 C480,88.52 479.384,83.072 478.264,77.816 L491.576,71.16 L484.416,56.848 L473.224,62.448 C469.768,54.696 465.064,47.632 459.4,41.448 L484.8,22.4 L475.2,9.6 L447.2,30.6 C442.944,27.552 438.392,24.92 433.56,22.768 L439.16,11.576 L424.848,4.416 L418.192,17.728 C412.928,16.616 407.488,16 401.896,16 L400,16 L400,0 L384,0 L384,16.808 C379.592,17.704 375.536,19.464 371.784,21.68 L367.152,12.424 L352.84,19.584 L359.488,32.872 C356.672,36.816 354.624,41.288 353.384,46.112 L329.936,40.24 L326.064,55.76 L352.648,62.408 C353.392,67 354.952,71.272 357.128,75.2 L341.472,80.416 L346.536,95.584 L368.552,88.248 C371.632,90.496 375.04,92.248 378.688,93.552 L369.344,107.568 L382.656,116.44 L395.632,96.984 C398.192,98.312 400,100.912 400,104 C400,109.328 401.096,114.4 402.992,119.056 L387.56,129.344 L396.432,142.656 L411.848,132.376 C415.328,135.824 419.448,138.616 423.992,140.608 L423.992,176 L439.992,176 L439.992,144 C446.024,144 451.696,142.56 456.832,140.152 L474.336,157.656 L485.648,146.344 L469.76,130.456 C474.36,125.288 477.752,119.024 479.184,112 L496,112 L496,96 L480,96 L480,96 Z M464,104 C464,117.232 453.232,128 440,128 C426.768,128 416,117.232 416,104 C416,90.768 405.232,80 392,80 C378.768,80 368,69.232 368,56 C368,42.768 378.768,32 392,32 L401.896,32 C436.144,32 464,59.856 464,94.104 L464,104 L464,104 Z" id="Shape"></path>
                                        </g>
                                    </g>
                                </g>
                            </g>
                        </g>
                    </g>
                </g>
            </g>
        </g>
    </g>
</svg>