<?xml version="1.0" encoding="UTF-8" standalone="no"?>
<svg width="50px" height="50px" viewBox="0 0 50 50" version="1.1" xmlns="http://www.w3.org/2000/svg" xmlns:xlink="http://www.w3.org/1999/xlink">
    <!-- Generator: Sketch 41.2 (35397) - http://www.bohemiancoding.com/sketch -->
    <title>facebook-logo-in-circular-button-outlined-social-symbol (1)</title>
    <desc>Created with Sketch.</desc>
    <defs></defs>
    <g id="Page-1" stroke="none" stroke-width="1" fill="none" fill-rule="evenodd">
        <g id="Desktop-Copy-8" transform="translate(-564.000000, -3973.000000)">
            <g id="Group-29" transform="translate(0.000000, 3801.000000)">
                <g id="subscribe_header" transform="translate(292.000000, 66.000000)">
                    <g id="Group-30" transform="translate(112.000000, 0.000000)">
                        <g id="facebook" transform="translate(127.000000, 106.000000)">
                            <g id="facebook-logo-in-circular-button-outlined-social-symbol-(1)" transform="translate(33.000000, 0.000000)">
                                <g id="Capa_1">
                                    <g id="Group">
                                        <rect id="Rectangle-16" x="0" y="0" width="50" height="50"></rect>
                                        <path d="M50,25 C50,11.1931373 38.806781,0 25,0 C11.1931373,0 0,11.1931373 0,25 C0,38.806781 11.1931373,50 25,50 C38.806781,50 50,38.806781 50,25 L50,25 Z M2.27271242,25 C2.27271242,12.4477124 12.4477124,2.27271242 25,2.27271242 C37.5522876,2.27271242 47.7272876,12.4477124 47.7272876,25 C47.7272876,37.5522876 37.5522876,47.7272876 25,47.7272876 C12.4477124,47.7272876 2.27271242,37.5522876 2.27271242,25 L2.27271242,25 Z" id="Shape" fill="#FFFFFF"></path>
                                        <path d="M25.9590686,39.4294935 L25.9590686,25 L30.7204248,25 L31.4727124,20.218219 L25.9590686,20.218219 L25.9590686,17.8205065 C25.9590686,16.5727941 26.3681373,15.3818627 28.1590686,15.3818627 L31.7385621,15.3818627 L31.7385621,10.6091503 L26.656781,10.6091503 C22.3840686,10.6091503 21.2181373,13.4227124 21.2181373,17.3227941 L21.2181373,20.2160131 L18.2863562,20.2160131 L18.2863562,25 L21.2181373,25 L21.2181373,39.4294935 L25.9590686,39.4294935 L25.9590686,39.4294935 L25.9590686,39.4294935 Z" id="Shape" fill="#FFFFFF"></path>
                                    </g>
                                </g>
                            </g>
                        </g>
                    </g>
                </g>
            </g>
        </g>
    </g>
</svg>