<?xml version="1.0" encoding="UTF-8" standalone="no"?>
<svg width="50px" height="50px" viewBox="0 0 50 50" version="1.1" xmlns="http://www.w3.org/2000/svg" xmlns:xlink="http://www.w3.org/1999/xlink">
    <!-- Generator: Sketch 41.2 (35397) - http://www.bohemiancoding.com/sketch -->
    <title>ic_mail</title>
    <desc>Created with Sketch.</desc>
    <defs></defs>
    <g id="Page-1" stroke="none" stroke-width="1" fill="none" fill-rule="evenodd">
        <g id="ic_mail">
            <g id="Group">
                <g>
                    <rect id="Rectangle-16" x="0" y="0" width="50" height="50"></rect>
                    <path d="M48.8636364,7 L1.13636364,7 C0.507954545,7 0,7.502875 0,8.125 L0,41.875 C0,42.497125 0.507954545,43 1.13636364,43 L48.8636364,43 C49.4909091,43 50,42.497125 50,41.875 L50,8.125 C50,7.502875 49.4909091,7 48.8636364,7 L48.8636364,7 Z M47.7272727,38.028625 L33.65,24.09325 L32.0431818,25.684 L47.2613636,40.75 L2.73863636,40.75 L17.9568182,25.684 L16.35,24.09325 L2.27272727,38.028625 L2.27272727,9.25 L47.7272727,9.25 L47.7272727,38.028625 L47.7272727,38.028625 Z" id="Shape" fill="#FFFFFF"></path>
                    <path d="M45.4306818,9.25 L25,29.476375 L4.56931818,9.25 L2.27272727,9.25 L2.27272727,10.157875 L24.1965909,31.8625 C24.6409091,32.302375 25.3590909,32.302375 25.8034091,31.8625 L47.7272727,10.157875 L47.7272727,9.25 L45.4306818,9.25 L45.4306818,9.25 Z" id="Shape" fill="#FFFFFF"></path>
                </g>
            </g>
        </g>
    </g>
</svg>