<?xml version="1.0" encoding="utf-8"?>

<!DOCTYPE svg PUBLIC "-//W3C//DTD SVG 1.1//EN" "http://www.w3.org/Graphics/SVG/1.1/DTD/svg11.dtd">
<svg version="1.1" id="Layer_1" xmlns="http://www.w3.org/2000/svg" xmlns:xlink="http://www.w3.org/1999/xlink" x="0px" y="0px"
	 viewBox="0 0 1530.25 1656.49" enable-background="new 0 0 1530.25 1656.49" xml:space="preserve">
<path d="M1498.227,49.172c-7.44-13.527-22.753-21.326-38.006-20.911c-36.559,0.195-73.114,0.129-109.661,0.124
	c-21.575-0.199-40.585,19.007-40.635,40.489c-0.004,1.073-0.112,93.61-0.054,97.716c-29.095,18.724-383.922,394.035-863.32,399.638
	l-0.114,2.401c-0.58-0.668-1.765-2.012-2.345-2.68c-77.165-0.417-154.376-0.037-231.56-0.315
	c-79.991-0.564-158.793,51.147-184.154,150.411c-3.351,34.798-2.026,197.945-2.009,199.038
	c0.383,67.073,41.187,132.629,101.725,161.715c11.749,6.029,24.489,9.557,36.68,14.404c9.267,2.029,2.244,19.06,57.264,390.408
	c17.78,97.541,113.043,151.953,179.586,97.703c30.901-24.545,47.443-63.848,49.693-102.66c2.957-31.989-7.663-71.196-28.792-236.719
	c-6.644-47.27-11.81-94.778-19.628-141.849c326.015-8.844,663.329,181.597,907.287,399.835
	c0.92,143.039-14.512,129.443,128.516,130.153c11.26-0.215,22.715,1.092,33.842-1.232c18.039-4.06,31.298-21.443,31.604-39.755
	C1504.059-30.496,1506.87,62.769,1498.227,49.172z"/>
</svg>
